# AST/ASF file generated using VICON BodyLanguage
# -----------------------------------------------
:version 1.10
:name VICON
:units
  mass 1.0
  length 0.45
  angle deg
:documentation
   .ast/.asf automatically generated from VICON data using
   VICON BodyBuilder and BodyLanguage model FoxedUp or BRILLIANT.MOD
:root
   order TX TY TZ RX RY RZ
   axis XYZ
   position 0 0 0  
   orientation 0 0 0 
:bonedata
  begin
     id 1 
     name lhipjoint
     direction 0.692814 -0.645514 0.321437 
     length 2.38754 
     axis 0 0 0  XYZ
  end
  begin
     id 2 
     name lfemur
     direction 0.34202 -0.939693 0  
     length 6.41921  
     axis 0 0 20  XYZ
    dof rx ry rz
    limits (-160.0 20.0)
           (-70.0 70.0)
           (-60.0 70.0)
  end
  begin
     id 3 
     name ltibia
     direction 0.34202 -0.939693 0   
     length 6.98247   
     axis 0 0 20   XYZ
    dof rx
    limits (-10.0 170.0)
  end
  begin
     id 4 
     name lfoot
     direction 0.0947186 -0.260237 0.960888   
     length 1.83034   
     axis -90 7.62852e-016 20   XYZ
    dof rx rz
    limits (-45.0 90.0)
           (-70.0 20.0)
  end
  begin
     id 5 
     name ltoes
     direction 1.53538e-011 -4.21952e-011 1   
     length 0.920499   
     axis -90 7.62852e-016 20   XYZ
    dof rx
    limits (-90.0 20.0)
  end
  begin
     id 6 
     name rhipjoint
     direction -0.631686 -0.693949 0.345555   
     length 2.2209  
     axis 0 0 0  XYZ 
  end
  begin
     id 7 
     name rfemur
     direction -0.34202 -0.939693 0   
     length 6.49542   
     axis 0 0 -20   XYZ
    dof rx ry rz
    limits (-160.0 20.0)
           (-70.0 70.0)
           (-70.0 60.0)
  end
  begin
     id 8 
     name rtibia
     direction -0.34202 -0.939693 0   
     length 7.21712   
     axis 0 0 -20   XYZ
    dof rx
    limits (-10.0 170.0)
 end
 begin
     id 9 
     name rfoot
     direction -0.0825378 -0.226771 0.970444   
     length 1.89724  
     axis -90 -7.62852e-016 -20   XYZ
    dof rx rz
    limits (-45.0 90.0)
           (-20.0 70.0)
  end
  begin
     id 10 
     name rtoes
     direction -1.53515e-011 -4.22016e-011 1   
     length 0.955868   
     axis -90 -7.62852e-016 -20   XYZ
    dof rx
    limits (-90.0 20.0)
  end
  begin
     id 11 
     name lowerback
     direction -0.0104711 0.984802 -0.173368   
     length 1.84931   
     axis 0 0 0   XYZ
    dof rx ry rz
    limits (-20.0 45.0)
           (-30.0 30.0)
           (-30.0 30.0)
  end
  begin
     id 12 
     name upperback
     direction -0.00286433 0.999996 -0.000382853   
     length 1.85768   
     axis 0 0 0   XYZ
    dof rx ry rz
    limits (-20.0 45.0)
           (-30.0 30.0)
           (-30.0 30.0)
  end
  begin
     id 13 
     name thorax
     direction 0.00167534 0.996793 0.0800069   
     length 1.92   
     axis 0 0 0   XYZ
    dof rx ry rz
    limits (-20.0 45.0)
           (-30.0 30.0)
           (-30.0 30.0)
  end
  begin
     id 14 
     name lowerneck
     direction -0.0672491 0.995415 0.068018   
     length 1.58923   
     axis 0 0 0   XYZ
    dof rx ry rz
    limits (-20.0 45.0)
           (-30.0 30.0)
           (-30.0 30.0)
  end
  begin
     id 15 
     name upperneck
     direction 0.0958019 0.982476 -0.159884   
     length 1.60189   
     axis 0 0 0   XYZ
    dof rx ry rz
    limits (-20.0 45.0)
           (-30.0 30.0)
           (-30.0 30.0)
  end
  begin
     id 16
     name head
     direction 0.032989 0.997338 -0.0650226  
     length 1.61681  
     axis 0 0 0   XYZ
    dof rx ry rz
    limits (-20.0 45.0)
           (-30.0 30.0)
           (-30.0 30.0)
  end
  begin
     id 17 
     name lclavicle
     direction 0.954279 0.298875 -0.00496069  
     length 2.99449  
     axis 0 0 0   XYZ
    dof ry rz
    limits (-20.0 10.0)
           (0.0 20.0)
  end
  begin
     id 18 
     name lhumerus
     direction 1 -4.48985e-011 -4.2057e-027   
     length 4.79185   
     axis 180 -30 -90   XYZ
    dof rx ry rz
    limits (-60.0 90.0)
           (-90.0 90.0)
           (-90.0 90.0)
  end
  begin
     id 19
     name lradius
     direction 1 -4.48945e-011 1.15441e-028   
     length 2.65553   
     axis 180 -30 -90   XYZ
    dof rx
    limits (-10.0 170.0)
  end
  begin
     id 20
     name lwrist
     direction 1 -4.4899e-011 4.8894e-028   
     length 1.32777   
     axis -2.56392e-016 90 90   XYZ
    dof ry
    limits (-180.0 0.0)
 end
  begin
     id 21 
     name lhand
     direction 1 -4.48908e-011 9.7788e-028   
     length 0.743904   
     axis -6.23971e-016 90 90   XYZ
    dof rx rz
    limits (-90.0 90.0)
           (-45.0 45.0)
  end
  begin
     id 22 
     name lfingers
     direction 1 -4.49068e-011 1.95576e-027   
     length 0.599754   
     axis -1.24794e-015 90 90   XYZ
    dof rx
    limits (0.0 90.0)
  end
  begin
     id 23
     name lthumb
     direction 0.707107 -6.34883e-011 0.707107   
     length 0.861131   
     axis -90 45 2.85299e-015   XYZ
    dof rx rz
    limits (-45.0 45.0)
           (-45.0 45.0)
  end
  begin
     id 24 
     name rclavicle
     direction -0.957921 0.286916 0.00811568   
     length 3.06817  
     axis 0 0 0   XYZ 
    dof ry rz
    limits (-10.0 20.0)
           (-20.0 0.0)
  end
  begin
     id 25 
     name rhumerus
     direction -1 -4.48971e-011 -3.07942e-027  
     length 4.77254   
     axis 180 30 90   XYZ
    dof rx ry rz
    limits (-90.0 60.0)
           (-90.0 90.0)
           (-90.0 90.0)
  end
  begin
     id 26 
     name rradius
     direction -1 -4.48957e-011 -9.6815e-028   
     length 2.75995   
     axis 180 30 90   XYZ
    dof rx
    limits (-10.0 170.0)
  end
  begin
     id 27 
     name rwrist
     direction -1 -4.48979e-011 4.8894e-028   
     length 1.37997   
     axis -2.56392e-016 -90 -90   XYZ
    dof ry
    limits (-180.0 0.0)
  end
  begin
     id 28
     name rhand
     direction -1 -4.48906e-011 9.7788e-028   
     length 0.701619   
     axis -6.23971e-016 -90 -90   XYZ
    dof rx rz
    limits (-90.0 90.0)
           (-45.0 45.0)
  end
  begin
     id 29
     name rfingers
     direction -1 -4.49018e-011 1.95576e-027   
     length 0.565663   
     axis -1.24794e-015 -90 -90   XYZ
    dof rx
    limits (0.0 90.0)
  end
  begin
     id 30
     name rthumb
     direction -0.707107 -6.34881e-011 0.707107   
     length 0.812183   
     axis -90 -45 -2.85299e-015   XYZ
    dof rx rz
    limits (-45.0 45.0)
           (-45.0 45.0)
  end
:hierarchy
  begin
    root lhipjoint rhipjoint lowerback
    lhipjoint lfemur
    lfemur ltibia
    ltibia lfoot
    lfoot ltoes
    rhipjoint rfemur
    rfemur rtibia
    rtibia rfoot
    rfoot rtoes
    lowerback upperback
    upperback thorax
    thorax lowerneck lclavicle rclavicle
    lowerneck upperneck
    upperneck head
    lclavicle lhumerus
    lhumerus lradius
    lradius lwrist
    lwrist lhand lthumb
    lhand lfingers
    rclavicle rhumerus
    rhumerus rradius
    rradius rwrist
    rwrist rhand rthumb
    rhand rfingers
  end

#!OML:ASF F:\VICON\USERDATA\INSTALL\rory3\rory3.ASF
:FULLY-SPECIFIED
:DEGREES
97
root -14.9085 15.71 8.90566 -184.402 53.2591 -185.624
lowerback 11.1444 -0.855665 -5.35243
upperback 0.881598 -1.77132 -0.919264
thorax -5.19434 -0.726722 2.3194
lowerneck -11.265 -7.5332 -11.7807
upperneck 28.9142 -8.98355 6.66783
head 12.2845 -4.15355 3.31647
rclavicle -6.38347e-014 -2.16675e-014
rhumerus -36.3763 -9.72513 -82.184
rradius 24.7124
rwrist 14.2978
rhand -17.413 15.3659
rfingers 7.12502
rthumb 8.83679 -14.4291
lclavicle -6.38347e-014 -2.16675e-014
lhumerus -30.2802 11.0813 82.2253
lradius 18.9542
lwrist -10.3113
lhand -11.6404 11.9799
lfingers 7.12502
lthumb 14.4035 41.4601
rfemur -30.4601 9.16176 13.9378
rtibia 23.7481
rfoot -11.9641 -22.2118
rtoes -5.56371
lfemur 17.0979 -8.16414 -30.2823
ltibia -6.67916e-014
lfoot -9.01477 2.52837
ltoes -3.67789
98
root -14.8245 15.7105 8.86685 -184.623 52.9201 -185.954
lowerback 11.0882 -0.89459 -5.5598
upperback 0.862516 -1.84673 -0.958255
thorax -5.17203 -0.759407 2.40482
lowerneck -11.0833 -7.5731 -11.921
upperneck 28.7372 -9.07249 6.8228
head 12.2028 -4.19548 3.38671
rclavicle -1.67476e-014 7.55382e-015
rhumerus -36.5647 -10.2028 -81.815
rradius 24.4907
rwrist 14.7663
rhand -17.4281 15.297
rfingers 7.12502
rthumb 8.82226 -14.4986
lclavicle -1.67476e-014 7.55382e-015
lhumerus -30.2645 11.283 82.2089
lradius 18.9695
lwrist -10.6892
lhand -11.6541 12.3599
lfingers 7.12502
lthumb 14.3903 41.8411
rfemur -30.4827 9.12429 13.5828
rtibia 23.4193
rfoot -12.0369 -21.9954
rtoes -5.37886
lfemur 17.395 -8.2847 -30.4783
ltibia 4.13472e-014
lfoot -8.86467 2.45943
ltoes -3.39763
99
root -14.7375 15.7059 8.8299 -184.72 52.6254 -186.162
lowerback 11.0683 -0.871631 -5.7289
upperback 0.799633 -1.84002 -0.967505
thorax -5.22297 -0.750146 2.48934
lowerneck -10.7519 -7.67397 -12.1208
upperneck 28.4279 -9.267 7.03188
head 12.0574 -4.28948 3.4722
rclavicle -1.19942e-013 -1.98785e-015
rhumerus -36.8124 -10.7309 -81.4408
rradius 24.3075
rwrist 15.1533
rhand -17.3176 14.821
rfingers 7.12502
rthumb 8.92885 -14.9701
lclavicle -1.19942e-013 -1.98785e-015
lhumerus -30.2875 11.2393 82.2929
lradius 19.0847
lwrist -10.7756
lhand -11.6894 12.8465
lfingers 7.12502
lthumb 14.3563 42.3301
rfemur -30.5157 9.14884 13.3251
rtibia 23.2298
rfoot -12.1337 -21.8892
rtoes -4.99171
lfemur 17.6694 -8.37809 -30.5685
ltibia -3.49861e-014
lfoot -8.71635 2.42263
ltoes -3.01215
100
root -14.6503 15.7027 8.79182 -184.738 52.3423 -186.253
lowerback 11.096 -0.854158 -5.79197
upperback 0.714311 -1.8329 -0.976321
thorax -5.32776 -0.741357 2.51632
lowerneck -10.5529 -7.76751 -12.2647
upperneck 28.3006 -9.4356 7.1988
head 12.0044 -4.36496 3.53676
rclavicle 4.64162e-014 9.93923e-016
rhumerus -37.1246 -10.9528 -81.2066
rradius 24.1913
rwrist 15.2866
rhand -17.2927 14.4112
rfingers 7.12502
rthumb 8.95293 -15.3789
lclavicle 4.64162e-014 9.93923e-016
lhumerus -30.3659 11.1095 82.3892
lradius 19.1121
lwrist -10.7881
lhand -11.7219 12.8986
lfingers 7.12502
lthumb 14.325 42.3844
rfemur -30.5037 9.22547 13.1495
rtibia 23.1825
rfoot -12.167 -21.9933
rtoes -4.97875
lfemur 17.927 -8.46627 -30.5764
ltibia 2.8625e-014
lfoot -8.50042 2.37976
ltoes -3.29667
101
root -14.5596 15.7031 8.74707 -184.699 52.0604 -186.328
lowerback 10.9933 -0.925651 -5.7898
upperback 0.634406 -1.92769 -0.998747
thorax -5.3477 -0.78738 2.5041
lowerneck -10.6782 -7.79918 -12.2428
upperneck 28.4446 -9.46368 7.16659
head 12.088 -4.37361 3.5159
rclavicle 4.02912e-014 6.55989e-015
rhumerus -37.4235 -10.7508 -81.2108
rradius 24.207
rwrist 15.1495
rhand -17.3743 14.0422
rfingers 7.12502
rthumb 8.87415 -15.7512
lclavicle 4.02912e-014 6.55989e-015
lhumerus -30.4943 11.0809 82.4419
lradius 19.1233
lwrist -10.5726
lhand -12.0522 12.6164
lfingers 7.12502
lthumb 14.0067 42.1245
rfemur -30.4678 9.17575 13.02
rtibia 23.2352
rfoot -12.1086 -22.1014
rtoes -5.18964
lfemur 18.1816 -8.56093 -30.5749
ltibia 2.22639e-014
lfoot -8.29597 2.30731
ltoes -3.57614
